<svg xmlns="http://www.w3.org/2000/svg" xmlns:xlink="http://www.w3.org/1999/xlink" version="1.1" width="461px" viewBox="-0.5 -0.5 461 221" style="max-width:100%;max-height:221px;"><defs/><g><path d="M 290 180 L 430 180 L 430 86.37" fill="none" stroke="#b85450" stroke-miterlimit="10" pointer-events="stroke"/><path d="M 430 81.12 L 433.5 88.12 L 430 86.37 L 426.5 88.12 Z" fill="#b85450" stroke="#b85450" stroke-miterlimit="10" pointer-events="all"/><rect x="170" y="150" width="120" height="60" fill="#ffffff" stroke="#000000" pointer-events="all"/><g transform="translate(-0.5 -0.5)"><switch><foreignObject style="overflow: visible; text-align: left;" pointer-events="none" width="100%" height="100%" requiredFeatures="http://www.w3.org/TR/SVG11/feature#Extensibility"><div xmlns="http://www.w3.org/1999/xhtml" style="display: flex; align-items: unsafe center; justify-content: unsafe center; width: 118px; height: 1px; padding-top: 180px; margin-left: 171px;"><div style="box-sizing: border-box; font-size: 0; text-align: center; "><div style="display: inline-block; font-size: 12px; font-family: Helvetica; color: #000000; line-height: 1.2; pointer-events: all; white-space: normal; word-wrap: normal; ">Feature Extractor</div></div></div></foreignObject><text x="230" y="184" fill="#000000" font-family="Helvetica" font-size="12px" text-anchor="middle">Feature Extractor</text></switch></g><path d="M 60 180 L 163.63 180" fill="none" stroke="#b85450" stroke-miterlimit="10" pointer-events="stroke"/><path d="M 168.88 180 L 161.88 183.5 L 163.63 180 L 161.88 176.5 Z" fill="#b85450" stroke="#b85450" stroke-miterlimit="10" pointer-events="all"/><path d="M 0 155 C 0 146.72 13.43 140 30 140 C 37.96 140 45.59 141.58 51.21 144.39 C 56.84 147.21 60 151.02 60 155 L 60 205 C 60 213.28 46.57 220 30 220 C 13.43 220 0 213.28 0 205 Z" fill="#ffffff" stroke="#000000" stroke-miterlimit="10" pointer-events="all"/><path d="M 60 155 C 60 163.28 46.57 170 30 170 C 13.43 170 0 163.28 0 155" fill="none" stroke="#000000" stroke-miterlimit="10" pointer-events="all"/><g transform="translate(-0.5 -0.5)"><switch><foreignObject style="overflow: visible; text-align: left;" pointer-events="none" width="100%" height="100%" requiredFeatures="http://www.w3.org/TR/SVG11/feature#Extensibility"><div xmlns="http://www.w3.org/1999/xhtml" style="display: flex; align-items: unsafe center; justify-content: unsafe center; width: 58px; height: 1px; padding-top: 193px; margin-left: 1px;"><div style="box-sizing: border-box; font-size: 0; text-align: center; "><div style="display: inline-block; font-size: 12px; font-family: Helvetica; color: #000000; line-height: 1.2; pointer-events: all; white-space: normal; word-wrap: normal; ">Extracted Features</div></div></div></foreignObject><text x="30" y="196" fill="#000000" font-family="Helvetica" font-size="12px" text-anchor="middle">Extracted&#8230;</text></switch></g><path d="M 0 15 C 0 6.72 13.43 0 30 0 C 37.96 0 45.59 1.58 51.21 4.39 C 56.84 7.21 60 11.02 60 15 L 60 65 C 60 73.28 46.57 80 30 80 C 13.43 80 0 73.28 0 65 Z" fill="#ffffff" stroke="#000000" stroke-miterlimit="10" pointer-events="all"/><path d="M 60 15 C 60 23.28 46.57 30 30 30 C 13.43 30 0 23.28 0 15" fill="none" stroke="#000000" stroke-miterlimit="10" pointer-events="all"/><g transform="translate(-0.5 -0.5)"><switch><foreignObject style="overflow: visible; text-align: left;" pointer-events="none" width="100%" height="100%" requiredFeatures="http://www.w3.org/TR/SVG11/feature#Extensibility"><div xmlns="http://www.w3.org/1999/xhtml" style="display: flex; align-items: unsafe center; justify-content: unsafe center; width: 58px; height: 1px; padding-top: 53px; margin-left: 1px;"><div style="box-sizing: border-box; font-size: 0; text-align: center; "><div style="display: inline-block; font-size: 12px; font-family: Helvetica; color: #000000; line-height: 1.2; pointer-events: all; white-space: normal; word-wrap: normal; ">Web</div></div></div></foreignObject><text x="30" y="56" fill="#000000" font-family="Helvetica" font-size="12px" text-anchor="middle">Web</text></switch></g><path d="M 170 40 L 66.37 40" fill="none" stroke="#000000" stroke-miterlimit="10" pointer-events="stroke"/><path d="M 61.12 40 L 68.12 36.5 L 66.37 40 L 68.12 43.5 Z" fill="#000000" stroke="#000000" stroke-miterlimit="10" pointer-events="all"/><path d="M 230 70 L 230 105 L 30 105 L 30 133.63" fill="none" stroke="#b85450" stroke-miterlimit="10" pointer-events="stroke"/><path d="M 30 138.88 L 26.5 131.88 L 30 133.63 L 33.5 131.88 Z" fill="#b85450" stroke="#b85450" stroke-miterlimit="10" pointer-events="all"/><g transform="translate(-0.5 -0.5)"><switch><foreignObject style="overflow: visible; text-align: left;" pointer-events="none" width="100%" height="100%" requiredFeatures="http://www.w3.org/TR/SVG11/feature#Extensibility"><div xmlns="http://www.w3.org/1999/xhtml" style="display: flex; align-items: unsafe center; justify-content: unsafe center; width: 1px; height: 1px; padding-top: 107px; margin-left: 131px;"><div style="box-sizing: border-box; font-size: 0; text-align: center; "><div style="display: inline-block; font-size: 11px; font-family: Helvetica; color: #000000; line-height: 1.2; pointer-events: all; background-color: #ffffff; white-space: nowrap; ">cycle</div></div></div></foreignObject><text x="131" y="110" fill="#000000" font-family="Helvetica" font-size="11px" text-anchor="middle">cycle</text></switch></g><rect x="170" y="10" width="120" height="60" fill="#ffffff" stroke="#000000" pointer-events="all"/><g transform="translate(-0.5 -0.5)"><switch><foreignObject style="overflow: visible; text-align: left;" pointer-events="none" width="100%" height="100%" requiredFeatures="http://www.w3.org/TR/SVG11/feature#Extensibility"><div xmlns="http://www.w3.org/1999/xhtml" style="display: flex; align-items: unsafe center; justify-content: unsafe center; width: 118px; height: 1px; padding-top: 40px; margin-left: 171px;"><div style="box-sizing: border-box; font-size: 0; text-align: center; "><div style="display: inline-block; font-size: 12px; font-family: Helvetica; color: #000000; line-height: 1.2; pointer-events: all; white-space: normal; word-wrap: normal; ">Scraper</div></div></div></foreignObject><text x="230" y="44" fill="#000000" font-family="Helvetica" font-size="12px" text-anchor="middle">Scraper</text></switch></g><path d="M 400 40 L 310 40 L 296.37 40" fill="none" stroke="#b85450" stroke-miterlimit="10" pointer-events="stroke"/><path d="M 291.12 40 L 298.12 36.5 L 296.37 40 L 298.12 43.5 Z" fill="#b85450" stroke="#b85450" stroke-miterlimit="10" pointer-events="all"/><path d="M 400 15 C 400 6.72 413.43 0 430 0 C 437.96 0 445.59 1.58 451.21 4.39 C 456.84 7.21 460 11.02 460 15 L 460 65 C 460 73.28 446.57 80 430 80 C 413.43 80 400 73.28 400 65 Z" fill="#ffffff" stroke="#000000" stroke-miterlimit="10" pointer-events="all"/><path d="M 460 15 C 460 23.28 446.57 30 430 30 C 413.43 30 400 23.28 400 15" fill="none" stroke="#000000" stroke-miterlimit="10" pointer-events="all"/><g transform="translate(-0.5 -0.5)"><switch><foreignObject style="overflow: visible; text-align: left;" pointer-events="none" width="100%" height="100%" requiredFeatures="http://www.w3.org/TR/SVG11/feature#Extensibility"><div xmlns="http://www.w3.org/1999/xhtml" style="display: flex; align-items: unsafe center; justify-content: unsafe center; width: 58px; height: 1px; padding-top: 53px; margin-left: 401px;"><div style="box-sizing: border-box; font-size: 0; text-align: center; "><div style="display: inline-block; font-size: 12px; font-family: Helvetica; color: #000000; line-height: 1.2; pointer-events: all; white-space: normal; word-wrap: normal; ">Scraped Dataset</div></div></div></foreignObject><text x="430" y="56" fill="#000000" font-family="Helvetica" font-size="12px" text-anchor="middle">Scraped Da&#8230;</text></switch></g><g transform="translate(-0.5 -0.5)"><switch><foreignObject style="overflow: visible; text-align: left;" pointer-events="none" width="100%" height="100%" requiredFeatures="http://www.w3.org/TR/SVG11/feature#Extensibility"><div xmlns="http://www.w3.org/1999/xhtml" style="display: flex; align-items: unsafe center; justify-content: unsafe center; width: 1px; height: 1px; padding-top: 41px; margin-left: 351px;"><div style="box-sizing: border-box; font-size: 0; text-align: center; "><div style="display: inline-block; font-size: 11px; font-family: Helvetica; color: #000000; line-height: 1.2; pointer-events: all; background-color: #ffffff; white-space: nowrap; ">cycle</div></div></div></foreignObject><text x="351" y="44" fill="#000000" font-family="Helvetica" font-size="11px" text-anchor="middle">cycle</text></switch></g><g transform="translate(-0.5 -0.5)"><switch><foreignObject style="overflow: visible; text-align: left;" pointer-events="none" width="100%" height="100%" requiredFeatures="http://www.w3.org/TR/SVG11/feature#Extensibility"><div xmlns="http://www.w3.org/1999/xhtml" style="display: flex; align-items: unsafe center; justify-content: unsafe center; width: 1px; height: 1px; padding-top: 181px; margin-left: 381px;"><div style="box-sizing: border-box; font-size: 0; text-align: center; "><div style="display: inline-block; font-size: 11px; font-family: Helvetica; color: #000000; line-height: 1.2; pointer-events: all; background-color: #ffffff; white-space: nowrap; ">cycle</div></div></div></foreignObject><text x="381" y="184" fill="#000000" font-family="Helvetica" font-size="11px" text-anchor="middle">cycle</text></switch></g><g transform="translate(-0.5 -0.5)"><switch><foreignObject style="overflow: visible; text-align: left;" pointer-events="none" width="100%" height="100%" requiredFeatures="http://www.w3.org/TR/SVG11/feature#Extensibility"><div xmlns="http://www.w3.org/1999/xhtml" style="display: flex; align-items: unsafe center; justify-content: unsafe center; width: 1px; height: 1px; padding-top: 181px; margin-left: 111px;"><div style="box-sizing: border-box; font-size: 0; text-align: center; "><div style="display: inline-block; font-size: 11px; font-family: Helvetica; color: #000000; line-height: 1.2; pointer-events: all; background-color: #ffffff; white-space: nowrap; ">cycle</div></div></div></foreignObject><text x="111" y="184" fill="#000000" font-family="Helvetica" font-size="11px" text-anchor="middle">cycle</text></switch></g></g><switch><g requiredFeatures="http://www.w3.org/TR/SVG11/feature#Extensibility"/><a transform="translate(0,-5)" xlink:href="https://desk.draw.io/support/solutions/articles/16000042487" target="_blank" rel="noopener noreferrer"><text text-anchor="middle" font-size="10px" x="50%" y="100%">Viewer does not support full SVG 1.1</text></a></switch></svg>