<svg xmlns="http://www.w3.org/2000/svg" xmlns:xlink="http://www.w3.org/1999/xlink" version="1.1" width="365px" viewBox="-0.5 -0.5 365 191" style="max-width:100%;max-height:191px;"><defs></defs><g><path d="M 240 150 L 334 150 L 334 86.37" fill="none" stroke="#36393d" stroke-miterlimit="10" pointer-events="stroke"></path><path d="M 334 81.12 L 337.5 88.12 L 334 86.37 L 330.5 88.12 Z" fill="#36393d" stroke="#36393d" stroke-miterlimit="10" pointer-events="all"></path><rect x="120" y="120" width="120" height="60" fill="#ffffff" stroke="#000000" pointer-events="all"></rect><g transform="translate(-0.5 -0.5)"><switch><foreignObject style="overflow: visible; text-align: left;" pointer-events="none" width="100%" height="100%" requiredFeatures="http://www.w3.org/TR/SVG11/feature#Extensibility"><div xmlns="http://www.w3.org/1999/xhtml" style="display: flex; align-items: unsafe center; justify-content: unsafe center; width: 118px; height: 1px; padding-top: 150px; margin-left: 121px;"><div style="box-sizing: border-box; font-size: 0; text-align: center; "><div style="display: inline-block; font-size: 12px; font-family: Helvetica; color: #000000; line-height: 1.2; pointer-events: all; white-space: normal; word-wrap: normal; ">Feature Extractor</div></div></div></foreignObject><text x="180" y="154" fill="#000000" font-family="Helvetica" font-size="12px" text-anchor="middle">Feature Extractor</text></switch></g><path d="M 60 150 L 113.63 150" fill="none" stroke="#36393d" stroke-miterlimit="10" pointer-events="stroke"></path><path d="M 118.88 150 L 111.88 153.5 L 113.63 150 L 111.88 146.5 Z" fill="#36393d" stroke="#36393d" stroke-miterlimit="10" pointer-events="all"></path><path d="M 0 125 C 0 116.72 13.43 110 30 110 C 37.96 110 45.59 111.58 51.21 114.39 C 56.84 117.21 60 121.02 60 125 L 60 175 C 60 183.28 46.57 190 30 190 C 13.43 190 0 183.28 0 175 Z" fill="#ffffff" stroke="#000000" stroke-miterlimit="10" pointer-events="all"></path><path d="M 60 125 C 60 133.28 46.57 140 30 140 C 13.43 140 0 133.28 0 125" fill="none" stroke="#000000" stroke-miterlimit="10" pointer-events="all"></path><g transform="translate(-0.5 -0.5)"><switch><foreignObject style="overflow: visible; text-align: left;" pointer-events="none" width="100%" height="100%" requiredFeatures="http://www.w3.org/TR/SVG11/feature#Extensibility"><div xmlns="http://www.w3.org/1999/xhtml" style="display: flex; align-items: unsafe center; justify-content: unsafe center; width: 58px; height: 1px; padding-top: 163px; margin-left: 1px;"><div style="box-sizing: border-box; font-size: 0; text-align: center; "><div style="display: inline-block; font-size: 12px; font-family: Helvetica; color: #000000; line-height: 1.2; pointer-events: all; white-space: normal; word-wrap: normal; ">Extracted Features</div></div></div></foreignObject><text x="30" y="166" fill="#000000" font-family="Helvetica" font-size="12px" text-anchor="middle">Extracted&#8230;</text></switch></g><path d="M 0 15 C 0 6.72 13.43 0 30 0 C 37.96 0 45.59 1.58 51.21 4.39 C 56.84 7.21 60 11.02 60 15 L 60 65 C 60 73.28 46.57 80 30 80 C 13.43 80 0 73.28 0 65 Z" fill="#ffffff" stroke="#000000" stroke-miterlimit="10" pointer-events="all"></path><path d="M 60 15 C 60 23.28 46.57 30 30 30 C 13.43 30 0 23.28 0 15" fill="none" stroke="#000000" stroke-miterlimit="10" pointer-events="all"></path><g transform="translate(-0.5 -0.5)"><switch><foreignObject style="overflow: visible; text-align: left;" pointer-events="none" width="100%" height="100%" requiredFeatures="http://www.w3.org/TR/SVG11/feature#Extensibility"><div xmlns="http://www.w3.org/1999/xhtml" style="display: flex; align-items: unsafe center; justify-content: unsafe center; width: 58px; height: 1px; padding-top: 53px; margin-left: 1px;"><div style="box-sizing: border-box; font-size: 0; text-align: center; "><div style="display: inline-block; font-size: 12px; font-family: Helvetica; color: #000000; line-height: 1.2; pointer-events: all; white-space: normal; word-wrap: normal; ">Web</div></div></div></foreignObject><text x="30" y="56" fill="#000000" font-family="Helvetica" font-size="12px" text-anchor="middle">Web</text></switch></g><path d="M 120 40 L 66.37 40" fill="none" stroke="#36393d" stroke-miterlimit="10" pointer-events="stroke"></path><path d="M 61.12 40 L 68.12 36.5 L 66.37 40 L 68.12 43.5 Z" fill="#36393d" stroke="#36393d" stroke-miterlimit="10" pointer-events="all"></path><rect x="120" y="10" width="120" height="60" fill="#ffffff" stroke="#000000" pointer-events="all"></rect><g transform="translate(-0.5 -0.5)"><switch><foreignObject style="overflow: visible; text-align: left;" pointer-events="none" width="100%" height="100%" requiredFeatures="http://www.w3.org/TR/SVG11/feature#Extensibility"><div xmlns="http://www.w3.org/1999/xhtml" style="display: flex; align-items: unsafe center; justify-content: unsafe center; width: 118px; height: 1px; padding-top: 40px; margin-left: 121px;"><div style="box-sizing: border-box; font-size: 0; text-align: center; "><div style="display: inline-block; font-size: 12px; font-family: Helvetica; color: #000000; line-height: 1.2; pointer-events: all; white-space: normal; word-wrap: normal; ">Scraper</div></div></div></foreignObject><text x="180" y="44" fill="#000000" font-family="Helvetica" font-size="12px" text-anchor="middle">Scraper</text></switch></g><path d="M 304 40 L 246.37 40" fill="none" stroke="#000000" stroke-miterlimit="10" pointer-events="stroke"></path><path d="M 241.12 40 L 248.12 36.5 L 246.37 40 L 248.12 43.5 Z" fill="#000000" stroke="#000000" stroke-miterlimit="10" pointer-events="all"></path><path d="M 304 15 C 304 6.72 317.43 0 334 0 C 341.96 0 349.59 1.58 355.21 4.39 C 360.84 7.21 364 11.02 364 15 L 364 65 C 364 73.28 350.57 80 334 80 C 317.43 80 304 73.28 304 65 Z" fill="#ffffff" stroke="#000000" stroke-miterlimit="10" pointer-events="all"></path><path d="M 364 15 C 364 23.28 350.57 30 334 30 C 317.43 30 304 23.28 304 15" fill="none" stroke="#000000" stroke-miterlimit="10" pointer-events="all"></path><g transform="translate(-0.5 -0.5)"><switch><foreignObject style="overflow: visible; text-align: left;" pointer-events="none" width="100%" height="100%" requiredFeatures="http://www.w3.org/TR/SVG11/feature#Extensibility"><div xmlns="http://www.w3.org/1999/xhtml" style="display: flex; align-items: unsafe center; justify-content: unsafe center; width: 58px; height: 1px; padding-top: 53px; margin-left: 305px;"><div style="box-sizing: border-box; font-size: 0; text-align: center; "><div style="display: inline-block; font-size: 12px; font-family: Helvetica; color: #000000; line-height: 1.2; pointer-events: all; white-space: normal; word-wrap: normal; ">Scraped Dataset</div></div></div></foreignObject><text x="334" y="56" fill="#000000" font-family="Helvetica" font-size="12px" text-anchor="middle">Scraped Da&#8230;</text></switch></g><rect x="30" y="100" width="50" height="30" fill="none" stroke="none" pointer-events="all"></rect><g transform="translate(-0.5 -0.5)"><switch><foreignObject style="overflow: visible; text-align: left;" pointer-events="none" width="100%" height="100%" requiredFeatures="http://www.w3.org/TR/SVG11/feature#Extensibility"><div xmlns="http://www.w3.org/1999/xhtml" style="display: flex; align-items: unsafe center; justify-content: unsafe center; width: 1px; height: 1px; padding-top: 115px; margin-left: 55px;"><div style="box-sizing: border-box; font-size: 0; text-align: center; "><div style="display: inline-block; font-size: 12px; font-family: Helvetica; color: #000000; line-height: 1.2; pointer-events: all; white-space: nowrap; "><h1 style="margin: 0px 0px 10px ; padding: 0px ; border: 0px ; outline: 0px ; font-size: 28px ; vertical-align: baseline ; background: 0px 0px ; font-family: &quot;helvetica neue&quot; , &quot;helvetica&quot; , &quot;arial&quot; , sans-serif"><span class="emoji" style="margin: 0px ; padding: 0px ; border: 0px ; outline: 0px ; vertical-align: baseline ; background: 0px 0px ; font-weight: 400 ; font-family: &quot;apple color emoji&quot; , &quot;segoe ui emoji&quot; , &quot;noto color emoji&quot; , &quot;android emoji&quot; , &quot;emojisymbols&quot; , &quot;emojione mozilla&quot; , &quot;twemoji mozilla&quot; , &quot;segoe ui symbol&quot;">✔️</span></h1></div></div></div></foreignObject><text x="55" y="119" fill="#000000" font-family="Helvetica" font-size="12px" text-anchor="middle">✔️</text></switch></g></g><switch><g requiredFeatures="http://www.w3.org/TR/SVG11/feature#Extensibility"></g><a transform="translate(0,-5)" xlink:href="https://desk.draw.io/support/solutions/articles/16000042487" target="_blank" rel="noopener noreferrer"><text text-anchor="middle" font-size="10px" x="50%" y="100%">Viewer does not support full SVG 1.1</text></a></switch></svg>